<?xml version="1.0" encoding="UTF-8"?>
<svg id="Capa_2" data-name="Capa 2" xmlns="http://www.w3.org/2000/svg" viewBox="0 0 791.52 123.22">
  <defs>
    <style>
      .cls-1 {
        fill: #fff;
      }
    </style>
  </defs>
  <g id="Capa_1-2" data-name="Capa 1">
    <g>
      <path class="cls-1" d="M0,123.22V0h17.57v123.22H0Z"/>
      <path class="cls-1" d="M52.7,123.22v-8.78h-8.78v-8.78h-8.79v-17.63h8.79v-8.78h17.57v-8.78h35.26v-8.84h-8.84v-8.78h-26.41v8.78h-26.35v-8.78h8.79v-8.78h8.78v-8.78h44.04v8.78h8.79v8.78h8.78v70.39h-17.57v-8.78h-8.84v8.78h-35.2ZM87.9,105.65v-8.78h8.84v-17.63h-8.84v8.78h-30.8v17.63h30.8Z"/>
      <path class="cls-1" d="M131.88,123.22V0h79.18v8.84h8.79v8.78h8.84v39.59h-8.84v8.84h-8.79v8.78h8.79v8.78h8.84v39.59h-17.63v-30.8h-8.78v-8.78h-8.79v-8.78h-44.04v48.37h-17.57ZM202.27,57.22v-8.78h8.78v-22.02h-8.78v-8.78h-52.83v39.59h52.83Z"/>
      <path class="cls-1" d="M263.82,123.22v-8.78h-8.78v-8.78h-8.78v-52.83h8.78v-8.78h8.78v-8.78h44.04v8.78h8.78v8.78h8.78v30.8h-61.61v13.24h8.78v8.78h26.41v-8.78h26.41v8.78h-8.78v8.78h-8.78v8.78h-44.04ZM307.86,70.45v-8.84h-8.84v-8.78h-26.41v8.78h-8.78v8.84h44.04Z"/>
      <path class="cls-1" d="M343,123.22V35.26h17.57v8.78h8.79v-8.78h30.8v8.78h8.84v8.78h8.78v70.39h-17.63v-61.61h-8.79v-8.78h-22.02v8.78h-8.79v61.61h-17.57Z"/>
      <path class="cls-1" d="M448.53,123.22v-8.78h-8.79V48.43h-13.18v-13.18h13.18V8.84h17.63v26.41h17.57v13.18h-17.57v57.22h17.57v17.57h-26.41Z"/>
      <path class="cls-1" d="M505.68,123.22v-8.78h-8.79v-8.78h-8.78v-17.63h8.78v-8.78h17.57v-8.78h35.26v-8.84h-8.84v-8.78h-26.41v8.78h-26.35v-8.78h8.78v-8.78h8.79v-8.78h44.04v8.78h8.78v8.78h8.79v70.39h-17.57v-8.78h-8.84v8.78h-35.2ZM540.88,105.65v-8.78h8.84v-17.63h-8.84v8.78h-30.8v17.63h30.8Z"/>
      <path class="cls-1" d="M584.86,123.22v-17.57h17.57v17.57h-17.57Z"/>
      <path class="cls-1" d="M637.56,123.22v-8.78h-8.78v-8.78h-8.78v-52.83h8.78v-8.78h8.78v-8.78h44.04v8.78h8.78v8.78h8.78v30.8h-61.61v13.24h8.78v8.78h26.41v-8.78h26.41v8.78h-8.78v8.78h-8.78v8.78h-44.04ZM681.6,70.45v-8.84h-8.84v-8.78h-26.41v8.78h-8.78v8.84h44.04Z"/>
      <path class="cls-1" d="M729.92,123.22v-8.78h-8.78v-8.78h-8.78v-8.78h26.35v8.78h30.8v-17.63h-30.8v-8.78h-17.57v-8.78h-8.78v-17.63h8.78v-8.78h8.78v-8.78h44.04v8.78h8.78v8.78h8.78v8.78h-26.41v-8.78h-30.8v17.63h30.8v8.78h17.63v8.78h8.78v17.63h-8.78v8.78h-8.78v8.78h-44.04Z"/>
    </g>
  </g>
</svg>